# Modelo de Rueda generado con CreateWheel.js
# Número de lados: 8
# Radio: 1
# Ancho: 0.5

# Vértices
v 1.000000 0.000000 0.250000
v 1.000000 0.000000 -0.250000
v 0.707107 0.707107 0.250000
v 0.707107 0.707107 -0.250000
v 0.000000 1.000000 0.250000
v 0.000000 1.000000 -0.250000
v -0.707107 0.707107 0.250000
v -0.707107 0.707107 -0.250000
v -1.000000 0.000000 0.250000
v -1.000000 0.000000 -0.250000
v -0.707107 -0.707107 0.250000
v -0.707107 -0.707107 -0.250000
v -0.000000 -1.000000 0.250000
v -0.000000 -1.000000 -0.250000
v 0.707107 -0.707107 0.250000
v 0.707107 -0.707107 -0.250000
v 0.000000 0.000000 0.250000
v 0.000000 0.000000 -0.250000

# Normales
vn 0.000000 0.000000 1.000000
vn 0.000000 0.000000 1.000000
vn 0.000000 0.000000 1.000000
vn 0.000000 0.000000 1.000000
vn 0.000000 0.000000 1.000000
vn 0.000000 0.000000 1.000000
vn 0.000000 0.000000 1.000000
vn 0.000000 0.000000 1.000000
vn 0.000000 0.000000 -1.000000
vn 0.000000 0.000000 -1.000000
vn 0.000000 0.000000 -1.000000
vn 0.000000 0.000000 -1.000000
vn 0.000000 0.000000 -1.000000
vn 0.000000 0.000000 -1.000000
vn 0.000000 0.000000 -1.000000
vn 0.000000 0.000000 -1.000000
vn 0.923880 0.382683 0.000000
vn 0.923880 0.382683 0.000000
vn 0.382683 0.923880 0.000000
vn 0.382683 0.923880 0.000000
vn -0.382683 0.923880 0.000000
vn -0.382683 0.923880 0.000000
vn -0.923880 0.382683 0.000000
vn -0.923880 0.382683 0.000000
vn -0.923880 -0.382683 0.000000
vn -0.923880 -0.382683 0.000000
vn -0.382683 -0.923880 0.000000
vn -0.382683 -0.923880 0.000000
vn 0.382683 -0.923880 0.000000
vn 0.382683 -0.923880 0.000000
vn 0.923880 -0.382683 0.000000
vn 0.923880 -0.382683 0.000000

# Caras
f 1//1 3//1 17//1
f 3//2 5//2 17//2
f 5//3 7//3 17//3
f 7//4 9//4 17//4
f 9//5 11//5 17//5
f 11//6 13//6 17//6
f 13//7 15//7 17//7
f 15//8 1//8 17//8
f 2//9 18//9 4//9
f 4//10 18//10 6//10
f 6//11 18//11 8//11
f 8//12 18//12 10//12
f 10//13 18//13 12//13
f 12//14 18//14 14//14
f 14//15 18//15 16//15
f 16//16 18//16 2//16
f 1//17 2//17 4//17
f 1//18 4//18 3//18
f 3//19 4//19 6//19
f 3//20 6//20 5//20
f 5//21 6//21 8//21
f 5//22 8//22 7//22
f 7//23 8//23 10//23
f 7//24 10//24 9//24
f 9//25 10//25 12//25
f 9//26 12//26 11//26
f 11//27 12//27 14//27
f 11//28 14//28 13//28
f 13//29 14//29 16//29
f 13//30 16//30 15//30
f 15//31 16//31 2//31
f 15//32 2//32 1//32
